# xmcd CD database file
#
# Track frame offsets:
#	150
#	24222
#	40770
#	65825
#	87030
#	116991
#	138765
#	165000
#
# Disc length: 2308 seconds
#
# Revision: 0
# Processed by: cddbd v1.5.1PL2 Copyright (c) Steve Scherf et al.
# Submitted via: CDex 1.51
#
DISCID=59090208
DTITLE=The Sealevel - Cats on the Coast
DYEAR=1977
DGENRE=Fusion
TTITLE0=That's Your Secret
TTITLE1=It Hurts To Want It So Bad
TTITLE2=Storm Warning
TTITLE3=Had To Fall
TTITLE4=Midnight Pass
TTITLE5=Every Little Thing
TTITLE6=Cats on the Coast
TTITLE7=Song For Amy
EXTD=YEAR: 1977
EXTT0=
EXTT1=
EXTT2=
EXTT3=
EXTT4=
EXTT5=
EXTT6=
EXTT7=
PLAYORDER=
